<svg id="Layer_1" data-name="Layer 1" xmlns="http://www.w3.org/2000/svg" viewBox="0 0 438.6 222.56"><defs><style>.cls-1{fill:#f9f9f9;}.cls-2{fill:#222;}</style></defs><path class="cls-1" d="M985.44,406.68H967c.22-2.56.36-5.15.36-7.77A88.92,88.92,0,0,0,799.7,357.52a54.37,54.37,0,0,0-89.64,41.39,55.19,55.19,0,0,0,.56,7.77h-17A52.66,52.66,0,0,0,641,459.34h0A52.66,52.66,0,0,0,693.66,512H985.44a52.66,52.66,0,0,0,52.65-52.66h0A52.66,52.66,0,0,0,985.44,406.68Z" transform="translate(-641 -310)"/><path class="cls-2" d="M919.89,332.56a87,87,0,0,1,86.92,86.92c0,2.38-.12,4.87-.35,7.6l-.19,2.17h20.67a50.66,50.66,0,1,1,0,101.31H735.16a50.66,50.66,0,1,1,0-101.31h19.27L754.1,427a52.37,52.37,0,0,1,85.81-47.35l1.9,1.62L843,379a86.78,86.78,0,0,1,76.92-46.46m0-2a88.91,88.91,0,0,0-78.69,47.53,54.36,54.36,0,0,0-89.64,41.39,55.3,55.3,0,0,0,.56,7.77h-17a52.66,52.66,0,0,0-52.66,52.66h0a52.66,52.66,0,0,0,52.66,52.65h291.78a52.66,52.66,0,0,0,52.66-52.65h0a52.66,52.66,0,0,0-52.66-52.66h-18.49c.22-2.56.36-5.15.36-7.77a88.92,88.92,0,0,0-88.92-88.92Z" transform="translate(-641 -310)"/></svg>