<svg id="Layer_1" data-name="Layer 1" xmlns="http://www.w3.org/2000/svg" viewBox="0 0 397.09 202"><defs><style>.cls-1{fill:#f9f9f9;}.cls-2{fill:#222;}.cls-3{fill:none;stroke:#222;stroke-miterlimit:10;stroke-width:3px;}</style></defs><g id="smiley_cloud" data-name="smiley cloud"><path class="cls-1" d="M1149,733.29A51.66,51.66,0,0,1,1149,630h18.11l-.16-1.14a53.37,53.37,0,0,1,87.44-48.26l1,.81.58-1.1a87.92,87.92,0,0,1,165.73,40.92c0,2.41-.12,4.92-.36,7.68l-.09,1.09h19.57a51.66,51.66,0,1,1,0,103.32Z" transform="translate(-1096.31 -532.29)"/><path class="cls-2" d="M1333.7,534.29a87,87,0,0,1,86.91,86.91c0,2.39-.11,4.87-.35,7.6l-.18,2.17h20.66a50.66,50.66,0,1,1,0,101.32H1149A50.66,50.66,0,0,1,1149,631h19.26l-.32-2.28a52.37,52.37,0,0,1,51.84-59.87,52.36,52.36,0,0,1,34,12.51l1.9,1.62,1.17-2.21a86.76,86.76,0,0,1,76.92-46.45m0-2A88.88,88.88,0,0,0,1255,579.81a54.37,54.37,0,0,0-89.64,41.39,55.3,55.3,0,0,0,.56,7.77h-17a52.66,52.66,0,0,0-52.66,52.66h0A52.66,52.66,0,0,0,1149,734.29h291.77a52.66,52.66,0,0,0,52.66-52.66h0A52.66,52.66,0,0,0,1440.74,629h-18.48c.22-2.56.35-5.15.35-7.77a88.9,88.9,0,0,0-88.91-88.91Z" transform="translate(-1096.31 -532.29)"/><path class="cls-2" d="M1247.53,671.77a4.5,4.5,0,1,0-4.5-4.5,4.55,4.55,0,0,0,4.5,4.5Z" transform="translate(-1096.31 -532.29)"/><path class="cls-2" d="M1336.44,672a4.5,4.5,0,1,0-4.5-4.5,4.55,4.55,0,0,0,4.5,4.5Z" transform="translate(-1096.31 -532.29)"/><path class="cls-3" d="M1261.5,705.36c24.15,8.41,48,7.2,60.39-4.1A27.71,27.71,0,0,0,1329,691" transform="translate(-1096.31 -532.29)"/></g></svg>